# xmcd CD database file
#
# Track frame offsets:
#	150
#	13099
#	30414
#	49903
#	68296
#	91212
#	109197
#	125992
#	147123
#	166188
#	183841
#	201552
#	216807
#	235046
#	254387
#	274652
#	305052
#
# Disc length: 4440 seconds
#
# Revision: 0
# Processed by: cddbd v1.5.1PL2 Copyright (c) Steve Scherf et al.
# Submitted via: CDex 1.51
#
DISCID=ef115611
DTITLE=Various Artist - Unity (the official Athens 2004 Olympic Games album)
DYEAR=2004
DGENRE=Pop Rock
TTITLE0=Avril Lavigne  -  knockin'on heaven's door
TTITLE1=Destiny's Child  -  will i am
TTITLE2=Timbaland and Kiley Dean and Utada  -  by your side
TTITLE3=Tiziano Ferro and Jamelia  -  universal prayer
TTITLE4=Sting and Mariza  -  a thousand years
TTITLE5=Beres Hammond and Les Nubians  -  all the way
TTITLE6=Mr G  -  issues
TTITLE7=Earth Wind and Fire and Roots Manuva  -  love together
TTITLE8=Wayne Wonder and Neneh Cherry  -  eyes on the prize
TTITLE9=Lenny Kravitz and Kadim Al Sahir  -  we want peace
TTITLE10=Macy Gray and Keziah Jones  -  oh yeah
TTITLE11=Moby and Public Enemy  -  MKLVFKWR
TTITLE12=Alice Cooper and Xzibit  -  stand
TTITLE13=Herbert Groenemeyer and Cheb Mami and George Dalaras  -  everlasting
TTITLE14=Brian Eno and Skin and Rachid Taha  -  still standing
TTITLE15=Trevor Horn Yiannis Kotsiras and Tarkan  -  pass the flame 
TTITLE16=track bonus
EXTD=YEAR: 2004
EXTT0=
EXTT1=
EXTT2=
EXTT3=
EXTT4=
EXTT5=
EXTT6=
EXTT7=
EXTT8=
EXTT9=
EXTT10=
EXTT11=
EXTT12=
EXTT13=
EXTT14=
EXTT15=
EXTT16=
PLAYORDER=
